<?xml version="1.0" standalone="no"?>
<!DOCTYPE svg PUBLIC "-//W3C//DTD SVG 20010904//EN"
 "http://www.w3.org/TR/2001/REC-SVG-20010904/DTD/svg10.dtd">
<svg version="1.0" xmlns="http://www.w3.org/2000/svg"
 width="300.000000pt" height="300.000000pt" viewBox="0 0 300.000000 300.000000"
 preserveAspectRatio="xMidYMid meet">
<metadata>
Created by potrace 1.14, written by Peter Selinger 2001-2017
</metadata>
<g transform="translate(0.000000,300.000000) scale(0.100000,-0.100000)"
fill="#000000" stroke="none">
<path d="M2643 2919 c-57 -33 -104 -65 -104 -72 -1 -7 -2 -252 -3 -546 l-1
-535 -60 -23 c-33 -13 -73 -30 -90 -38 -160 -72 -162 -62 -28 122 60 81 113
154 118 162 7 12 -189 -133 -278 -206 -16 -13 -33 -20 -38 -17 -10 6 -3 61 11
79 4 6 10 19 13 30 3 11 26 73 51 138 25 66 46 121 46 124 0 3 -52 -61 -115
-143 -63 -82 -121 -149 -127 -149 -14 0 -16 72 -5 165 4 30 9 87 12 125 4 39
9 79 12 90 14 48 -9 -2 -72 -155 -72 -177 -80 -191 -100 -184 -11 5 -18 31
-31 119 -7 47 -25 161 -29 182 -2 10 -4 29 -5 43 -1 45 -18 0 -24 -70 -4 -36
-9 -76 -11 -90 -4 -26 -16 -120 -20 -154 -1 -10 -9 -22 -18 -27 -13 -8 -20 -2
-33 23 -20 39 -111 239 -130 288 l-14 35 5 -48 c7 -65 15 -126 30 -237 12 -92
10 -109 -16 -110 -4 0 -51 55 -105 123 -105 130 -134 164 -134 156 0 -2 21
-54 46 -114 88 -211 95 -232 78 -239 -17 -7 -24 -2 -192 122 -63 46 -115 82
-117 80 -2 -2 46 -67 106 -145 157 -205 159 -203 -110 -99 -79 31 -146 55
-147 53 -2 -2 15 -17 39 -34 23 -17 75 -56 115 -87 65 -49 74 -60 51 -58 -3 1
-31 3 -63 6 -91 9 -148 16 -196 22 -25 4 -53 6 -64 6 -12 -1 -17 4 -13 17 10
38 -101 16 -116 -24 -9 -23 25 -19 58 7 l28 21 -12 -21 c-6 -12 -24 -29 -39
-37 l-27 -16 33 7 34 6 -17 -26 c-13 -19 -23 -25 -38 -20 -13 4 -17 2 -13 -5
4 -6 0 -11 -11 -11 -17 -1 -17 -1 0 -14 20 -15 9 -29 -25 -31 -29 -2 -33 -14
-12 -31 17 -14 17 -15 1 -10 -10 3 -16 2 -12 -3 10 -16 -6 -40 -22 -34 -12 5
-15 2 -11 -14 6 -21 -46 -101 -55 -86 -9 15 29 113 63 159 33 46 61 120 59
158 0 12 -6 5 -13 -19 -20 -62 -43 -101 -90 -152 l-44 -47 -11 39 c-11 44 -8
105 8 148 15 38 -3 26 -19 -13 -16 -40 -26 -38 -26 5 0 27 4 35 19 35 10 0 16
4 12 10 -3 5 -13 6 -21 3 -12 -5 -15 -1 -11 13 3 10 8 33 12 49 5 26 10 30 41
31 35 1 35 -10 -1 -19 -16 -4 -15 -5 6 -6 22 -1 59 24 59 40 0 10 -63 9 -76
-2 -17 -14 -18 -5 -3 23 8 16 8 19 -1 13 -27 -17 -62 -119 -63 -187 -1 -38 -4
-68 -6 -68 -15 0 -68 95 -81 147 -9 36 -9 35 -4 -12 6 -55 33 -116 69 -155 12
-14 32 -45 44 -70 16 -33 17 -38 4 -20 -25 35 -82 96 -83 88 0 -4 6 -13 13
-20 18 -19 57 -75 57 -83 0 -3 -13 3 -29 14 -42 30 -50 26 -14 -6 53 -49 64
-75 62 -143 -2 -58 -25 -112 -70 -163 -24 -28 -119 -163 -119 -169 0 -5 6 -8
13 -8 15 0 30 20 264 347 97 136 180 250 183 253 3 3 18 25 33 48 l29 44 61
-86 c34 -48 126 -174 205 -282 134 -184 142 -197 129 -218 -12 -18 -359 -503
-403 -563 -9 -13 -20 -23 -24 -23 -15 0 -92 86 -133 149 -24 37 -56 95 -71
131 -16 36 -32 69 -36 74 -5 4 -55 9 -113 10 l-104 1 9 -35 c14 -53 27 -88 66
-170 149 -317 423 -502 837 -565 66 -10 366 -14 420 -5 28 4 73 11 100 14 104
14 251 60 350 109 286 141 478 398 544 727 6 30 14 66 18 80 10 35 16 2020 6
2020 -4 0 -54 -28 -110 -61z m-108 -1289 c1 -44 -1 -84 -4 -89 -3 -5 -42 -12
-86 -16 -44 -4 -82 -8 -85 -10 -10 -6 -35 14 -35 27 0 13 30 41 110 103 21 17
50 40 64 52 14 12 28 19 31 17 2 -3 5 -41 5 -84z m0 -242 c0 -95 8 -91 -107
-57 -62 18 -68 22 -68 47 0 24 8 30 78 59 42 17 82 31 87 32 6 1 10 -31 10
-81z m-838 -98 c38 -52 134 -184 213 -293 80 -109 150 -206 155 -215 6 -9 12
-19 15 -22 3 -3 27 -35 53 -73 l48 -67 67 5 c37 3 86 8 110 10 23 3 42 2 42
-1 0 -17 -96 -137 -149 -186 -188 -175 -418 -251 -736 -243 -140 3 -246 19
-340 50 -73 24 -206 91 -244 123 l-33 27 159 220 c87 122 248 345 357 498 110
152 203 274 207 270 3 -5 38 -51 76 -103z m833 -59 c5 -1 6 -39 1 -134 -1 -36
-10 -30 -65 48 -69 95 -69 96 0 91 33 -2 61 -4 64 -5z"/>
<path d="M1500 900 l0 -60 55 2 55 2 0 58 0 58 -55 0 -55 0 0 -60z"/>
<path d="M1650 900 l0 -60 55 2 55 2 0 58 0 58 -55 0 -55 0 0 -60z"/>
<path d="M1500 751 l0 -58 55 1 55 1 0 57 0 58 -55 0 -55 0 0 -59z"/>
<path d="M1650 751 l0 -58 53 1 52 1 3 58 3 57 -56 0 -55 0 0 -59z"/>
<path d="M583 2049 c-15 -17 -23 -40 -22 -61 1 -31 1 -32 8 -7 12 37 32 72 38
65 3 -3 1 -11 -5 -18 -14 -18 -19 -67 -7 -69 6 -1 16 10 23 25 11 23 11 33 0
60 l-13 33 -22 -28z"/>
<path d="M480 2037 c0 -25 32 -62 43 -50 4 3 -3 18 -15 32 -20 22 -20 23 -2 8
11 -9 24 -17 29 -17 11 0 -15 29 -37 41 -15 8 -18 6 -18 -14z"/>
<path d="M661 2026 c-14 -17 -8 -46 9 -46 16 0 23 26 13 45 -9 15 -11 15 -22
1z"/>
<path d="M717 2000 c-19 -32 -22 -56 -7 -65 5 -3 7 0 5 7 -3 8 1 22 8 32 12
16 13 14 9 -20 -4 -35 -3 -37 12 -25 19 16 21 59 2 83 -11 15 -14 14 -29 -12z"/>
<path d="M422 1979 c2 -31 9 -46 28 -58 l24 -16 -17 25 c-9 13 -17 34 -17 45
1 15 4 12 14 -11 16 -37 32 -49 39 -30 7 18 -27 68 -53 78 -20 7 -21 5 -18
-33z"/>
<path d="M814 2000 c-27 -11 -37 -37 -18 -44 22 -8 21 -9 33 24 5 17 9 30 8
29 -1 0 -11 -4 -23 -9z"/>
<path d="M340 1967 c0 -7 7 -23 16 -35 17 -25 47 -31 38 -7 -4 9 0 15 7 15 18
1 -29 40 -47 40 -8 0 -14 -6 -14 -13z m45 -17 c3 -5 1 -10 -4 -10 -6 0 -11 5
-11 10 0 6 2 10 4 10 3 0 8 -4 11 -10z"/>
<path d="M522 1915 c2 -38 8 -56 30 -80 15 -16 28 -24 28 -17 0 6 -4 12 -9 12
-5 0 -13 18 -19 40 -5 23 -6 40 -1 40 5 0 9 -7 9 -15 0 -19 29 -65 41 -65 5 0
9 13 9 28 0 32 -42 88 -58 78 -6 -4 -16 2 -21 11 -9 14 -11 7 -9 -32z"/>
<path d="M853 1934 c-24 -24 -25 -27 -9 -36 20 -11 41 3 49 32 8 32 -10 33
-40 4z"/>
<path d="M631 1932 c-7 -13 -10 -31 -6 -40 5 -14 7 -14 22 1 13 12 14 21 6 39
l-10 23 -12 -23z"/>
<path d="M767 1912 c-22 -25 -24 -50 -2 -32 13 11 14 10 9 -6 -7 -19 -7 -19
14 0 24 21 29 56 9 56 -8 0 -21 -8 -30 -18z"/>
<path d="M297 1895 c-16 -11 -15 -14 9 -39 19 -18 36 -26 58 -25 21 1 24 3 10
6 -12 2 -32 16 -45 30 l-24 26 26 -17 c15 -9 39 -19 53 -22 24 -4 26 -3 17 15
-17 31 -77 46 -104 26z"/>
<path d="M456 1875 c-14 -13 -26 -34 -26 -45 0 -25 17 -18 31 14 8 17 8 16 4
-9 -5 -24 -4 -28 6 -17 10 9 22 82 14 82 -1 0 -14 -11 -29 -25z"/>
<path d="M658 1865 c-20 -26 -24 -75 -7 -75 5 0 7 4 4 10 -3 5 0 19 9 31 13
20 14 18 9 -22 -5 -42 -5 -43 12 -27 20 19 25 80 7 86 -7 2 -10 8 -6 13 12 20
-12 7 -28 -16z"/>
<path d="M940 1880 c-28 -7 -34 -33 -8 -38 9 -2 22 6 28 18 14 26 12 28 -20
20z"/>
<path d="M853 1860 c-24 -10 -49 -48 -38 -58 4 -4 18 7 32 23 l25 30 -16 -32
c-13 -25 -13 -31 -3 -27 14 5 41 75 29 73 -4 0 -17 -4 -29 -9z"/>
<path d="M758 1824 c-30 -16 -48 -42 -48 -70 0 -14 6 -12 32 12 31 29 30 17
-1 -20 -15 -18 -15 -18 6 -7 29 15 45 45 41 76 -3 22 -4 23 -30 9z"/>
<path d="M217 1810 c7 -25 41 -50 68 -50 18 1 16 4 -10 25 -31 26 -28 33 6 15
12 -7 19 -7 19 -1 0 14 -34 31 -63 31 -20 0 -24 -4 -20 -20z"/>
<path d="M524 1809 c-3 -6 1 -18 10 -27 15 -15 18 -15 26 -2 5 9 5 19 -2 27
-13 16 -25 17 -34 2z"/>
<path d="M891 1804 c-32 -23 -7 -38 31 -18 38 20 35 8 -4 -17 l-33 -21 30 7
c27 6 64 39 65 58 0 14 -65 7 -89 -9z"/>
<path d="M337 1803 c-9 -2 -15 -9 -11 -14 3 -5 10 -7 15 -3 5 3 8 0 7 -8 -4
-16 50 -24 65 -9 8 8 3 11 -16 11 -15 0 -27 5 -27 11 0 6 9 8 21 4 15 -5 19
-4 15 4 -7 11 -35 13 -69 4z"/>
<path d="M455 1762 c-7 -7 39 -49 60 -56 18 -5 18 -4 -2 13 -13 11 -23 23 -23
27 0 4 9 -1 20 -11 26 -24 39 -11 15 15 -15 17 -58 24 -70 12z"/>
<path d="M799 1739 c-14 -5 -31 -21 -37 -34 -14 -29 -6 -32 21 -7 19 16 20 16
8 -5 -12 -23 1 -34 14 -13 6 10 25 71 22 69 -1 0 -14 -5 -28 -10z"/>
<path d="M287 1732 c-15 -7 -14 -11 12 -39 29 -32 68 -49 93 -40 7 2 -3 11
-22 19 -19 8 -41 22 -49 31 -17 21 -3 22 19 2 9 -8 31 -18 49 -21 32 -7 33 -6
22 14 -20 38 -75 53 -124 34z"/>
<path d="M885 1732 c-24 -5 -45 -22 -26 -22 7 0 9 -4 6 -10 -3 -5 1 -10 9 -10
8 0 20 9 26 21 14 24 12 27 -15 21z"/>
<path d="M690 1693 c0 -27 35 -60 43 -40 6 15 0 26 -25 46 -16 12 -18 11 -18
-6z"/>
<path d="M220 1693 c0 -15 23 -33 41 -33 29 0 16 35 -14 38 -15 2 -27 -1 -27
-5z"/>
<path d="M926 1684 c-5 -13 -2 -15 19 -12 31 6 32 0 3 -12 -19 -7 -20 -9 -5
-9 21 -1 72 35 60 41 -25 13 -71 8 -77 -8z"/>
<path d="M470 1680 c0 -15 38 -32 45 -20 3 5 1 10 -5 10 -6 0 -8 5 -5 10 3 6
-3 10 -14 10 -12 0 -21 -4 -21 -10z"/>
<path d="M575 1670 c3 -5 15 -10 26 -10 11 0 17 5 14 10 -3 6 -15 10 -26 10
-11 0 -17 -4 -14 -10z"/>
<path d="M650 1634 c0 -16 48 -50 57 -41 3 4 0 14 -8 24 -9 11 -10 14 -1 9 6
-4 12 -2 12 3 0 6 -3 12 -7 12 -38 7 -53 4 -53 -7z"/>
<path d="M242 1627 c-23 -13 -23 -13 -3 -31 12 -11 31 -16 52 -14 42 4 51 27
10 24 -17 -1 -31 1 -31 6 0 4 12 8 28 8 21 0 24 2 12 10 -20 13 -40 12 -68 -3z"/>
<path d="M477 1633 c-13 -12 -7 -23 12 -23 26 0 35 16 15 24 -19 7 -19 7 -27
-1z"/>
<path d="M372 1613 c-18 -7 4 -33 28 -33 22 0 30 9 23 26 -5 14 -27 17 -51 7z"/>
<path d="M640 1570 c-13 -9 -13 -11 0 -20 19 -12 47 -13 55 -1 3 6 -3 15 -14
20 -24 13 -22 13 -41 1z"/>
<path d="M234 1548 c-9 -14 32 -48 57 -48 24 0 24 9 2 27 -17 14 -17 14 2 8
13 -4 17 -3 10 4 -15 15 -64 21 -71 9z"/>
<path d="M346 1513 c21 -34 44 -52 64 -53 9 0 1 11 -17 26 -18 14 -33 31 -33
37 0 8 3 9 8 1 9 -13 54 -44 64 -44 14 0 9 16 -12 38 -14 15 -33 22 -57 22
l-35 0 18 -27z"/>
<path d="M633 1513 c-7 -3 -13 -9 -13 -14 0 -12 37 -12 44 0 7 11 -14 20 -31
14z"/>
<path d="M300 1470 c-13 -9 -13 -11 0 -20 19 -13 47 -13 55 0 3 6 1 10 -5 10
-6 0 -8 5 -5 10 8 13 -25 13 -45 0z"/>
<path d="M357 1421 l-27 -18 25 -11 c33 -15 62 -15 71 0 5 7 2 9 -8 6 -8 -4
-21 -2 -29 3 -10 6 -4 9 19 9 17 0 32 5 32 10 0 6 -3 10 -7 11 -5 0 -17 2 -28
4 -12 2 -33 -4 -48 -14z"/>
<path d="M470 1383 c-8 -4 -21 -12 -28 -19 -11 -11 -8 -15 12 -20 32 -8 51 3
37 20 -6 7 -8 16 -4 19 7 8 4 8 -17 0z"/>
<path d="M843 1322 c-19 -3 -23 -10 -23 -40 0 -36 1 -37 35 -37 34 0 35 1 35
36 0 39 -10 47 -47 41z"/>
<path d="M920 1285 c0 -40 1 -41 33 -40 29 1 32 5 35 37 3 34 2 36 -32 40
l-36 4 0 -41z"/>
<path d="M826 1223 c-3 -4 -6 -21 -6 -40 0 -31 2 -33 36 -33 34 0 35 1 32 36
-3 32 -7 37 -30 40 -14 1 -29 0 -32 -3z"/>
<path d="M920 1188 c0 -37 1 -38 35 -38 33 0 35 2 35 35 0 19 -3 35 -7 36 -62
8 -63 8 -63 -33z"/>
</g>
</svg>
